<svg width="170" height="170" viewBox="0 0 170 170" fill="none" xmlns="http://www.w3.org/2000/svg">
<g opacity="0.4" clip-path="url(#clip0)">
<path d="M95.8022 95.6926C90.9434 97.3773 87.0538 99.5855 84.5224 102.715C81.1096 106.915 79.5008 111.733 79.5008 117.253C79.5008 123.358 81.466 128.252 85.1503 131.944L85.1676 131.961L85.1852 131.978C89.0217 135.638 93.779 137.442 99.4737 137.442C105.194 137.442 110.127 135.439 113.797 131.762L113.801 131.758C117.659 127.872 119.446 122.972 119.446 117.071C119.446 113.504 118.817 110.191 117.57 107.259C124.856 112.114 132.403 118.179 137.97 124.789C144.853 132.958 147.903 141.424 147.212 149.553C145.56 151.529 143.822 153.41 141.854 154.975L141.835 154.99L141.817 155.005C136.821 159.176 130.857 162.335 123.718 164.633C116.559 166.756 108.589 168 99.637 168C90.6437 168 82.6887 166.927 75.5776 164.64C68.4092 162.335 62.2939 159.173 57.4812 155.025C52.5992 150.818 48.7041 145.947 46.0632 140.24C43.411 134.509 42 128.249 42 121.254C42 111.694 43.9082 103.872 47.4532 97.6952C50.8989 91.6913 55.0223 87.0098 59.6676 83.602C60.0742 83.715 60.6095 83.8648 61.2583 84.049C64.8584 85.0709 71.9357 87.144 79.8671 89.8132C85.0782 91.5669 90.6334 93.5696 95.8022 95.6926Z" stroke="white" stroke-width="4"/>
<path d="M95.305 69.5781L95.3158 69.5828C105.586 74.0926 115.642 77.5148 123.122 79.8086C126.865 80.9562 129.968 81.8231 132.14 82.4038C133.225 82.6943 134.078 82.9132 134.662 83.06C134.852 83.108 135.014 83.1482 135.146 83.1808C140.898 87.632 145.552 92.8797 148.706 98.5741L148.728 98.6139L148.751 98.6527C152.334 104.479 154.225 112.649 154.225 123.168C154.225 130.069 152.99 136.209 150.406 141.808C150.18 142.286 149.984 142.747 149.81 143.187C148.994 140.1 147.587 137.064 145.782 134.133C142.423 128.682 137.591 123.443 132.231 118.679C121.514 109.152 108.413 101.283 99.8625 97.1955L99.8559 97.1924C91.2326 93.1094 81.2514 89.7014 73.4635 87.3207C69.5617 86.128 66.1943 85.1883 63.8007 84.5464C62.6037 84.2254 61.6496 83.9786 60.9931 83.8118C60.7928 83.7609 60.6203 83.7174 60.4769 83.6815C56.3787 79.8727 51.6673 74.1103 48.8199 69.1001C46.004 63.9691 44.5859 57.0209 44.5859 47.9088C44.5859 41.0053 45.8219 34.8624 48.4086 29.2621C51.0206 23.6073 54.5438 18.8256 59.1442 14.7209C63.7187 10.6392 69.2391 7.54632 75.753 5.29485C82.2877 3.21497 89.4484 2 97.2418 2C105.077 2 112.242 3.0485 118.753 5.12334C125.274 7.20113 130.81 10.1265 135.396 13.876C137.686 15.7923 139.675 17.837 141.441 20.0986C119.953 14.9497 105.087 18.7632 95.3956 25.5983C85.063 32.886 80.8165 43.4991 80.8165 49.5177C80.8165 54.6077 82.4087 58.8518 85.3344 62.1149C86.5045 63.4199 87.6922 64.5605 88.8997 65.5271C90.6609 67.0904 92.7494 68.4379 95.305 69.5781Z" stroke="white" stroke-width="4"/>
<path d="M113.556 50.3278C113.556 47.345 112.803 41.7476 108.862 37.2632C105.328 33.2418 99.5297 30.4459 90.3924 30.8477C90.3927 30.8473 90.3931 30.8469 90.3934 30.8465C91.9696 28.8828 94.5093 26.314 98.3219 23.9916C105.876 19.39 118.673 15.6089 139.384 19.8282C141.192 20.6704 143.2 22.5964 145.128 25.5614C147.09 28.5784 148.845 32.4814 150.145 36.8696C152.74 45.6329 153.432 56.0179 150.64 64.7514C149.03 68.0505 147.047 71.9272 144.777 75.517C142.674 78.8412 140.398 81.7997 138.038 83.8251C138.03 83.8232 138.022 83.8213 138.014 83.8194C137.375 83.663 136.433 83.4274 135.229 83.112C132.821 82.4812 129.367 81.532 125.197 80.2612C118.03 78.0768 108.765 74.948 99.0719 70.8618C103.182 69.1819 106.428 66.8936 108.777 63.9352C111.948 59.9414 113.556 55.4516 113.556 50.3278Z" stroke="white" stroke-width="4"/>
</g>
<defs>
<clipPath id="clip0">
<rect width="170" height="170" fill="white"/>
</clipPath>
</defs>
</svg>
