<svg width="170" height="170" viewBox="0 0 170 170" fill="none" xmlns="http://www.w3.org/2000/svg">
<g opacity="0.4" clip-path="url(#clip0)">
<path d="M44.5934 8.79475C54.6968 5.48944 68.1147 2.49241 82.6486 2.0331C101.929 1.42378 120.783 9.27429 132.824 21.6029C144.005 33.0498 149.23 48.2262 143.721 64.1678C129.649 44.0042 111.624 36.3838 94.0327 35.184C75.6557 33.9306 57.8627 39.6816 45.6082 45.0699C42.6188 46.3843 39.1945 45.9951 36.4928 44.3911C33.8017 42.7934 32 40.103 32 36.941V27.6854C32 19.0887 36.7414 11.3635 44.5934 8.79475Z" stroke="white" stroke-width="4"/>
<path d="M144.038 63.4849C139.504 86.3769 78.6666 132.56 78.6666 132.56H136.955C142.478 132.56 146.955 137.037 146.955 142.56V158.211C146.955 163.733 142.478 168.211 136.955 168.211H40.0547C34.5318 168.211 30.0547 163.733 30.0547 158.211V139.102C30.0547 131.419 31.8356 123.455 37.4749 118.237C37.7727 117.961 38.0707 117.696 38.3688 117.441L96.5689 68.7102C111.935 56.5178 106.897 38.5768 89.5158 35.342" stroke="white" stroke-width="4"/>
</g>
<defs>
<clipPath id="clip0">
<rect width="170" height="170" fill="white"/>
</clipPath>
</defs>
</svg>
