<svg width="170" height="170" viewBox="0 0 170 170" fill="none" xmlns="http://www.w3.org/2000/svg">
<g opacity="0.4" clip-path="url(#clip0)">
<path d="M137.895 36.1338L81.5381 156.583C78.2481 163.615 71.1862 168.107 63.4229 168.107H46.0209C38.6258 168.107 33.7889 160.358 37.0373 153.715L94.5287 36.1338" stroke="white" stroke-width="4"/>
<path d="M142.515 10.2481C142.722 11.9034 142.372 15.111 141.691 18.9929C141.028 22.7751 140.107 26.9085 139.326 30.2526C138.884 32.1435 138.457 33.8538 137.853 35.612H89.9653H40.2065C35.7883 35.612 32.2065 32.0303 32.2065 27.612V10C32.2065 5.58173 35.7883 2 40.2066 2H138.669C140.783 3.62885 142.073 6.7139 142.515 10.2481Z" stroke="white" stroke-width="4"/>
</g>
<defs>
<clipPath id="clip0">
<rect width="170" height="170" fill="white"/>
</clipPath>
</defs>
</svg>
