<svg width="170" height="170" viewBox="0 0 170 170" fill="none" xmlns="http://www.w3.org/2000/svg">
<g opacity="0.4" clip-path="url(#clip0)">
<path d="M80.0542 38.0151H78.7734V38.1962C79.1394 38.0151 79.6883 38.0151 80.0542 38.0151Z" fill="black"/>
<mask id="path-2-inside-1" fill="white">
<path d="M94.1641 64.8716C108.079 64.8716 121.412 69.0287 131.047 79.3254C150.411 98.0961 143.257 128.178 140.696 135.057C138.134 141.937 134.109 148.093 128.62 153.162C123.131 158.232 115.995 162.396 107.579 165.474C99.1621 168.552 88.9159 170 76.84 170C68.4234 170 60.7388 169.457 53.9689 168.19C50.43 167.544 45.5636 165.636 40.9866 163.583C34.1429 160.514 30 153.527 30 146.027V136.753C30 128.764 39.1792 123.62 46.5797 126.627C57.0473 130.881 67.6085 133.428 73.3636 133.428C81.9631 133.428 88.001 131.618 91.6604 127.815C95.3197 124.013 97.1494 119.487 97.1494 114.056C97.1494 108.805 95.5027 104.46 92.3923 101.02C89.0988 97.7613 86.1651 95.3687 75.7421 95.4549C65.3192 95.5411 57.6283 99.7528 54.1519 101.382C52.9697 101.772 52.2376 100.607 52.3728 99.3694C55.0602 74.7723 74.3943 64.8714 94.1641 64.8716Z"/>
</mask>
<path d="M131.047 79.3254L128.127 82.0585L128.193 82.1297L128.263 82.1975L131.047 79.3254ZM94.1641 64.8716L94.1641 68.8716H94.1641V64.8716ZM52.3728 99.3694L56.3492 99.8038L52.3728 99.3694ZM54.1519 101.382L55.4049 105.181L55.6325 105.106L55.8495 105.004L54.1519 101.382ZM75.7421 95.4549L75.7752 99.4547L75.7421 95.4549ZM92.3923 101.02L95.3592 98.3374L95.2847 98.255L95.2057 98.1768L92.3923 101.02ZM91.6604 127.815L94.5424 130.589H94.5424L91.6604 127.815ZM46.5797 126.627L48.0856 122.921L46.5797 126.627ZM40.9866 163.583L42.6236 159.934L42.6236 159.934L40.9866 163.583ZM53.9689 168.19L54.705 164.258L54.6956 164.256L54.6862 164.254L53.9689 168.19ZM107.579 165.474L106.205 161.717H106.205L107.579 165.474ZM128.62 153.162L125.906 150.224L125.906 150.224L128.62 153.162ZM140.696 135.057L144.444 136.453V136.453L140.696 135.057ZM133.968 76.5924C123.374 65.2711 108.85 60.8716 94.1641 60.8716V68.8716C107.307 68.8716 119.45 72.7862 128.127 82.0585L133.968 76.5924ZM94.1641 60.8716C83.661 60.8715 72.9986 63.4957 64.5118 69.6602C55.9216 75.8997 49.8577 85.561 48.3965 98.935L56.3492 99.8038C57.5754 88.5807 62.5221 80.993 69.2133 76.1329C76.0078 71.1976 84.8974 68.8715 94.1641 68.8716L94.1641 60.8716ZM55.8495 105.004C59.4846 103.3 66.3762 99.5325 75.7752 99.4547L75.7091 91.455C64.2621 91.5497 55.772 96.2053 52.4543 97.7604L55.8495 105.004ZM75.7752 99.4547C80.7189 99.4139 83.4692 99.9713 85.235 100.689C86.9228 101.375 88.0183 102.319 89.5788 103.863L95.2057 98.1768C93.4728 96.4621 91.4548 94.581 88.2466 93.2774C85.1165 92.0054 81.1884 91.4097 75.7091 91.455L75.7752 99.4547ZM89.4253 103.703C91.8161 106.347 93.1494 109.712 93.1494 114.056H101.149C101.149 107.899 99.1893 102.573 95.3592 98.3374L89.4253 103.703ZM93.1494 114.056C93.1494 118.467 91.7108 121.995 88.7784 125.042L94.5424 130.589C98.9287 126.032 101.149 120.508 101.149 114.056H93.1494ZM88.7784 125.042C86.2459 127.673 81.5667 129.428 73.3636 129.428V137.428C82.3594 137.428 89.7562 135.562 94.5424 130.589L88.7784 125.042ZM73.3636 129.428C68.3708 129.428 58.3732 127.102 48.0856 122.921L45.0738 130.333C55.7213 134.659 66.8462 137.428 73.3636 137.428V129.428ZM39.3497 167.233C43.9319 169.288 49.1891 171.384 53.2516 172.125L54.6862 164.254C51.6708 163.705 47.1954 161.984 42.6236 159.934L39.3497 167.233ZM53.2329 172.121C60.3209 173.448 68.2674 174 76.84 174V166C68.5794 166 61.1566 165.466 54.705 164.258L53.2329 172.121ZM76.84 174C89.2049 174 99.9538 172.521 108.952 169.231L106.205 161.717C98.3704 164.582 88.6268 166 76.84 166V174ZM108.952 169.231C117.764 166.008 125.384 161.596 131.334 156.101L125.906 150.224C120.878 154.868 114.227 158.784 106.205 161.717L108.952 169.231ZM131.334 156.101C137.303 150.588 141.673 143.896 144.444 136.453L136.947 133.662C134.595 139.978 130.915 145.598 125.906 150.224L131.334 156.101ZM144.444 136.453C145.88 132.598 148.421 122.844 148.092 111.534C147.762 100.191 144.52 86.814 133.832 76.4534L128.263 82.1975C136.939 90.6075 139.801 101.657 140.095 111.767C140.39 121.91 138.073 130.637 136.947 133.662L144.444 136.453ZM26 136.753V146.027H34V136.753H26ZM42.6236 159.934C37.344 157.566 34 152.095 34 146.027H26C26 154.96 30.9419 163.462 39.3497 167.233L42.6236 159.934ZM48.0856 122.921C43.1082 120.899 37.655 121.648 33.4749 124.126C29.268 126.62 26 131.099 26 136.753H34C34 134.418 35.3216 132.331 37.5545 131.007C39.8141 129.668 42.6507 129.348 45.0738 130.333L48.0856 122.921ZM48.3965 98.935C48.2405 100.363 48.5322 102.077 49.6298 103.466C50.2063 104.196 51.0437 104.87 52.148 105.219C53.2706 105.575 54.4035 105.511 55.4049 105.181L52.8989 97.5835C53.3092 97.4482 53.9073 97.3849 54.5643 97.5931C55.2031 97.7955 55.6443 98.1739 55.9069 98.5063C56.3768 99.101 56.37 99.6132 56.3492 99.8038L48.3965 98.935Z" fill="white" mask="url(#path-2-inside-1)"/>
<path d="M39.4349 8.48838L40.8704 9.88103L39.4349 8.48838ZM32.1162 26.9554L30.1212 26.8148L30.1157 26.8929L30.1163 26.9712L32.1162 26.9554ZM32.2101 38.9047L34.2101 38.909L34.2101 38.899L34.2101 38.889L32.2101 38.9047ZM32.1484 67.4427L30.1484 67.4383L30.1484 67.4476L32.1484 67.4427ZM53.5722 102.057C54.6744 102.13 55.6273 101.296 55.7006 100.194C55.774 99.092 54.94 98.139 53.8379 98.0657L53.5722 102.057ZM124.999 -0.210449H57.7318V3.78955H124.999V-0.210449ZM57.7318 -0.210449C49.4787 -0.210449 42.8634 2.08228 37.9995 7.09574L40.8704 9.88103C44.7889 5.84201 50.2496 3.78955 57.7318 3.78955V-0.210449ZM37.9995 7.09574C33.1963 12.0466 30.6937 18.6951 30.1212 26.8148L34.1113 27.0961C34.6366 19.6455 36.8911 13.9827 40.8704 9.88103L37.9995 7.09574ZM30.1163 26.9712L30.2102 38.9204L34.2101 38.889L34.1161 26.9397L30.1163 26.9712ZM30.2101 38.9004L30.1484 67.4383L34.1484 67.447L34.2101 38.909L30.2101 38.9004ZM72.3072 73.0888V46.3277H68.3072V73.0888H72.3072ZM72.3072 46.3277C72.3072 44.6479 72.8545 43.3407 73.7656 42.4528C74.6764 41.5651 76.1488 40.9047 78.3578 40.9047V36.9047C75.3327 36.9047 72.7797 37.8282 70.9738 39.5882C69.1681 41.3479 68.3072 43.7523 68.3072 46.3277H72.3072ZM78.3578 40.9047H84.0298V36.9047H78.3578V40.9047ZM84.0298 40.9047H124.999V36.9047H84.0298V40.9047ZM30.1484 67.4476C30.1832 81.541 33.6166 90.1287 38.4499 95.2648C43.2893 100.407 49.2298 101.768 53.5722 102.057L53.8379 98.0657C50.058 97.8141 45.2542 96.6585 41.3629 92.5235C37.4656 88.3821 34.1817 80.9308 34.1484 67.4377L30.1484 67.4476ZM136.999 28.9047V11.7896H132.999V28.9047H136.999ZM124.999 40.9047C131.626 40.9047 136.999 35.5321 136.999 28.9047H132.999C132.999 33.323 129.417 36.9047 124.999 36.9047V40.9047ZM124.999 3.78955C129.417 3.78955 132.999 7.37128 132.999 11.7896H136.999C136.999 5.16214 131.626 -0.210449 124.999 -0.210449V3.78955Z" fill="white"/>
</g>
<defs>
<clipPath id="clip0">
<rect width="170" height="170" fill="white"/>
</clipPath>
</defs>
</svg>
