<svg width="170" height="170" viewBox="0 0 170 170" fill="none" xmlns="http://www.w3.org/2000/svg">
<g opacity="0.4" clip-path="url(#clip0)">
<path d="M117.88 84.8872C137.158 94.7819 152.728 132.75 123.107 155.299C117.408 159.637 110.388 162.755 102.394 164.937C94.3994 167.119 85.6783 168.21 76.2304 168.21C62.3796 168.21 48.165 164.991 38.0855 161.204C32.9625 159.28 30 154.178 30 148.705V140.563C30 133.288 37.8424 127.626 44.955 129.152C53.9667 131.084 64.416 132.75 69.8712 132.75C76.2304 132.75 81.4994 132.022 85.4966 130.386C87.1318 129.658 88.5853 128.931 89.8572 128.022C94.0361 124.93 96.2163 120.748 96.2163 115.656C96.2163 107.691 91.3051 100.334 85.6699 97.1465" stroke="white" stroke-width="4"/>
<path d="M69.6952 98.0175L69.6897 98.0175H69.6895H69.6888H62.7925C58.3742 98.0175 54.7925 94.4358 54.7925 90.0175V75.2842C54.7925 70.8659 58.3742 67.2842 62.7925 67.2842H73.0937C83.5006 67.7794 91.0333 64.6004 95.3461 59.5815C99.6685 54.5513 100.534 47.8979 97.9495 42.1341C95.3606 36.3606 89.4386 31.7157 80.638 30.25C71.8596 28.7881 60.2111 30.4676 45.8187 37.1929C44.468 37.8241 42.7413 37.5601 41.199 36.4501C39.6536 35.3378 38.6724 33.632 38.6724 31.9947V16.7885C38.6724 11.6543 41.629 7.16204 46.2466 5.85497C54.5367 3.50838 64.9535 2 75.6855 2C95.5575 2 108.371 6.11337 118.45 14.1141C128.488 22.0823 133.5 32.587 133.5 46.1899C133.5 59.2031 129.535 68.8455 123.667 76.0454C117.771 83.2785 109.863 88.1561 101.838 91.4379C93.8161 94.7184 85.7662 96.3682 79.7024 97.1948C76.6757 97.6074 74.1568 97.8132 72.4008 97.9158C71.5232 97.967 70.837 97.9925 70.3743 98.0051C70.1429 98.0114 69.9675 98.0145 69.8521 98.016C69.7944 98.0168 69.7516 98.0172 69.7244 98.0173L69.6952 98.0175Z" stroke="white" stroke-width="4"/>
</g>
<defs>
<clipPath id="clip0">
<rect width="170" height="170" fill="white"/>
</clipPath>
</defs>
</svg>
