<svg width="170" height="170" viewBox="0 0 170 170" fill="none" xmlns="http://www.w3.org/2000/svg">
<g opacity="0.4" clip-path="url(#clip0)">
<path d="M78.2598 96.2388V94.2388H77.1646L76.5747 95.1616L78.2598 96.2388ZM54.3564 133.631L52.6713 132.554L50.7042 135.631H54.3564V133.631ZM76.5747 95.1616L52.6713 132.554L56.0416 134.709L79.9449 97.316L76.5747 95.1616ZM54.3564 135.631H109.911V131.631H54.3564V135.631ZM110.562 94.2388H78.2598V98.2388H110.562V94.2388Z" fill="white"/>
<path d="M163.172 99.95C167.218 99.95 170.811 102.391 172.27 106.15V106.305L172.376 106.616C173.412 109.683 173.935 112.931 173.935 116.373C173.935 123.111 172.481 127.333 169.95 129.682C167.214 132.221 163.832 133.525 159.473 133.525H146.61L146.278 99.95H163.172Z" stroke="white" stroke-width="4"/>
<path d="M145.938 25.3541L145.938 25.36L146.123 87.5596L146.123 87.5671L146.123 87.5746L146.63 136.073V136.084V158.691C146.63 162.702 143.596 166.27 139.383 167.088H139.382H139.204L139.029 167.119C136.053 167.652 133.305 168 129.757 168C126.511 168 125.586 167.886 123.588 167.641C123.164 167.589 122.691 167.53 122.137 167.466C119.215 167.127 116.743 166.289 115.016 165.205C113.375 164.175 111.96 162.513 110.988 160.288C110.651 159.453 110.341 158.517 110.191 157.628L110.165 157.471L110.114 157.321C109.906 156.705 109.849 156.479 109.849 156.32V156.207L109.837 156.096C109.653 154.467 109.479 152.736 109.479 150.848L109.479 143.009L109.479 143.004L109.575 97.9549L109.575 97.9408L109.349 52.0201L109.315 45.145L105.656 50.9655L53.865 133.343H53.6753C46.7401 133.343 40.3036 130.008 36.2337 124.489L36.2291 124.483L36.2245 124.476C33.4005 120.709 32 115.873 32 109.989C32 106.857 32.3527 103.201 33.4132 99.1917L33.4239 99.1515L33.4328 99.1108C34.3136 95.1152 35.7023 91.7332 37.7301 88.9001L37.7488 88.8741L37.7666 88.8474L88.4267 13.049C92.7587 7.78739 98.9583 4.08169 105.615 3.07183L105.626 3.06998C110.176 2.35212 114.138 2 117.707 2C128.916 2 135.762 6.22351 139.869 10.661C144.061 15.1907 145.452 20.0029 145.584 21.0455C145.77 22.5154 145.938 23.856 145.938 25.3541Z" stroke="white" stroke-width="4"/>
</g>
<defs>
<clipPath id="clip0">
<rect width="170" height="170" fill="white"/>
</clipPath>
</defs>
</svg>
