<svg width="170" height="170" viewBox="0 0 170 170" fill="none" xmlns="http://www.w3.org/2000/svg">
<g opacity="0.4" clip-path="url(#clip0)">
<path d="M157.695 42.1909C158.119 42.0136 158.544 41.6591 158.757 41.4818C158.332 41.6591 157.907 41.8364 157.695 42.1909C157.482 42.1909 157.695 42.1909 157.695 42.1909Z" fill="#5B5CDF"/>
<path d="M74.0251 100.393C77.1712 97.5682 81.2854 95.3488 86.6096 93.7347C91.6918 92.1206 96.7739 91.3135 101.372 91.3135C109.358 91.3135 115.409 93.3312 119.765 97.5682C124.831 101.442 132.801 122.454 106.614 137.219" stroke="white" stroke-width="4"/>
<path d="M172.212 110.773C178.708 83.3292 146.728 42.4134 76.7726 74.348" stroke="white" stroke-width="4"/>
<path d="M141.454 138.563C153.348 135.527 164.613 128.535 171.215 115.402C168.146 137.48 156.488 150.422 143.674 157.967C128.097 167.14 110.663 168.405 104.415 167.908C80.8016 166.03 64.287 158.328 53.0353 147.617C41.7702 136.893 35.6189 122.998 33.0209 108.463C30.421 93.9185 31.3958 78.8067 34.3227 65.804C37.2602 52.7537 42.111 42.0563 47.0669 36.2236L47.0991 36.1857L47.1293 36.1463L47.3233 35.8936L45.7836 34.7118L47.3234 35.8935C53.0563 28.4235 63.5094 14.8095 85.5211 7.3908C96.3262 3.74914 108.213 2.00002 121.418 2.00002C131.06 2.00002 138.558 2.65003 144.828 3.92507C151.451 5.27182 155.693 11.676 155.693 18.9346L155.693 30.3783C155.693 35.2132 151.287 39.073 146.197 38.7384C125.114 37.3522 108.85 41.5844 97.0211 49.125C85.1877 56.6688 77.9186 67.4475 74.7287 78.9078C68.3995 101.646 78.1418 127.425 100.417 135.513C109.51 139.835 126.053 142.493 141.454 138.563Z" stroke="white" stroke-width="4"/>
</g>
<defs>
<clipPath id="clip0">
<rect width="170" height="170" fill="white" transform="translate(170 170) rotate(180)"/>
</clipPath>
</defs>
</svg>
