<svg width="170" height="170" viewBox="0 0 170 170" fill="none" xmlns="http://www.w3.org/2000/svg">
<g opacity="0.4" clip-path="url(#clip0)">
<path d="M46.3613 127.809C45.9349 127.986 45.5086 128.341 45.2954 128.518C45.7217 128.341 46.1481 128.163 46.3613 127.809C46.5744 127.809 46.3613 127.809 46.3613 127.809Z" fill="#5B5CDF"/>
<path d="M130.314 69.6077C127.158 72.4323 123.03 74.6517 117.687 76.2658C112.588 77.8799 107.488 78.6869 102.875 78.6869C94.8613 78.6869 88.7905 76.6693 84.4196 72.4323C79.3361 68.5582 71.3389 47.5464 97.6153 32.781" stroke="white" stroke-width="4"/>
<path d="M33.7088 52.0625C23.6406 90.8438 57.3642 127.587 127.557 95.6523" stroke="white" stroke-width="4"/>
<path d="M62.6601 31.437C50.7183 34.4742 39.4049 41.4755 32.7826 54.6334C35.8552 32.5368 47.5571 19.5849 60.4225 12.0344C76.0549 2.85981 93.5507 1.5945 99.8228 2.09184C123.519 3.97074 140.092 11.6732 151.383 22.3854C162.686 33.1098 168.858 47.0048 171.465 61.538C174.073 76.0817 173.095 91.1925 170.159 104.195C167.211 117.244 162.344 127.941 157.371 133.774L157.339 133.812L157.309 133.851L157.121 134.095C151.366 141.568 140.878 155.187 118.783 162.609C107.94 166.251 96.0117 168 82.7605 168C73.0739 168 65.5432 167.348 59.2467 166.07C52.6142 164.724 48.3624 158.314 48.3624 151.048V139.616C48.3624 134.782 52.7652 130.923 57.8518 131.259C79.0148 132.653 95.3409 128.426 107.215 120.889C119.094 113.348 126.393 102.57 129.598 91.1064C135.957 68.3595 126.178 42.5734 103.828 34.4862C94.7063 30.165 78.11 27.5077 62.6601 31.437Z" stroke="white" stroke-width="4"/>
</g>
<defs>
<clipPath id="clip0">
<rect width="170" height="170" fill="white"/>
</clipPath>
</defs>
</svg>
