<svg width="170" height="171" viewBox="0 0 170 171" fill="none" xmlns="http://www.w3.org/2000/svg">
<g opacity="0.4">
<path d="M142.66 35.0991V158.21C142.66 163.733 138.183 168.21 132.66 168.21H108.205C102.682 168.21 98.2046 163.733 98.2046 158.21V43.8429" stroke="white" stroke-width="4"/>
<path d="M142.698 37.5128C142.358 37.3016 141.992 37.0938 141.598 36.8933C138.147 35.1362 132.767 34.0427 124.695 35.8075C113.71 38.2092 81.079 47.961 62.9517 53.4523C57.8692 54.992 52.7217 51.2585 52.6044 45.9468L52.254 30.0714C52.1239 24.1813 55.9712 18.9402 61.6295 17.299L110.394 3.15544C124.073 0.143519 131.961 3.41622 136.495 8.31211C141.169 13.3583 142.698 20.5658 142.698 26.0543V37.5128Z" stroke="white" stroke-width="4"/>
</g>
</svg>
