<svg width="508" height="290" viewBox="0 0 508 290" fill="none" xmlns="http://www.w3.org/2000/svg">
<mask id="mask0" mask-type="alpha" maskUnits="userSpaceOnUse" x="0" y="0" width="508" height="290">
<rect width="507.5" height="290" fill="#C4C4C4"/>
</mask>
<g mask="url(#mask0)">
<path d="M451.768 373.204V48.1816H455.337V373.204L485.298 375.799H455.337H451.768H421.807L451.768 373.204Z" fill="#263238"/>
<path d="M474.16 30.3418L487.681 86.6747H419.431L434.79 30.558L474.16 30.3418Z" fill="url(#paint0_linear)"/>
<path d="M458.158 102.239C458.138 93.1626 458.267 85.8041 458.446 85.8037C458.625 85.8033 458.787 93.1611 458.807 102.238C458.827 111.315 458.698 118.673 458.519 118.674C458.34 118.674 458.178 111.316 458.158 102.239Z" fill="#263238"/>
<path d="M458.475 118.572C458.475 118.464 457.934 118.572 457.718 119.22C457.609 119.545 457.609 119.977 457.934 120.302C458.258 120.734 458.799 120.842 459.232 120.626C459.665 120.41 460.097 119.977 459.989 119.545C459.989 119.112 459.665 118.788 459.448 118.572C458.907 118.247 458.475 118.464 458.475 118.572C458.475 118.68 458.799 118.572 459.124 118.896C459.232 119.004 459.448 119.329 459.448 119.545C459.448 119.761 459.232 119.977 459.016 120.085C458.691 120.194 458.475 120.085 458.258 119.977C458.042 119.761 458.042 119.545 458.042 119.329C458.258 118.788 458.583 118.572 458.475 118.572Z" fill="#263238"/>
<path d="M84.5586 263.217H126.612V276.918H84.5586V263.217Z" fill="#263238"/>
<path d="M29.2258 176.414H174.626V264.152H29.2258V176.414Z" fill="#263238"/>
<path d="M32.8452 178.764H171.188V261.363H32.8452V178.764Z" fill="white"/>
<mask id="mask1" mask-type="alpha" maskUnits="userSpaceOnUse" x="32" y="179" width="140" height="83">
<path d="M32.6256 179.075H171.101V261.725H32.6256V179.075Z" fill="white"/>
</mask>
<g mask="url(#mask1)">
<path d="M160.659 188.303C156.95 188.303 153.241 197.854 153.241 205.99C153.241 214.126 158.745 213.947 160.659 213.947C162.573 213.947 168.077 214.126 168.077 205.99C168.077 197.854 164.368 188.303 160.659 188.303Z" fill="#7DCF84"/>
<path d="M160.658 221.836C159.502 221.836 158.565 220.899 158.565 219.743V206.038C158.565 204.882 159.502 203.945 160.658 203.945C161.814 203.945 162.751 204.882 162.751 206.038V219.743C162.751 220.899 161.814 221.836 160.658 221.836Z" fill="#B57F5F"/>
<path d="M52.5811 174.269C48.8722 174.269 45.1631 183.82 45.1631 191.956C45.1631 200.092 50.6666 199.912 52.5811 199.912C54.4952 199.912 59.9988 200.092 59.9988 191.956C59.999 183.821 56.2902 174.269 52.5811 174.269Z" fill="#7DCF84"/>
<path d="M52.581 207.802C51.425 207.802 50.4883 206.865 50.4883 205.709V192.004C50.4883 190.848 51.425 189.911 52.581 189.911C53.7367 189.911 54.6737 190.848 54.6737 192.004V205.709C54.6737 206.865 53.737 207.802 52.581 207.802Z" fill="#B57F5F"/>
<path d="M58.2983 298.699H34.7991C33.5989 298.699 32.626 297.726 32.626 296.526V232.848L99.8719 227.268L171.303 232.848V262.882L58.2983 298.699Z" fill="#CBF1FD"/>
<path d="M162.933 232.849H171.303V269.883H162.933V232.849Z" fill="#B6EDFF"/>
<path d="M134.683 199.017C135.977 193.543 132.588 188.056 127.114 186.762C121.64 185.468 116.153 188.857 114.859 194.331C113.565 199.805 116.953 205.292 122.428 206.586C127.902 207.88 133.389 204.491 134.683 199.017Z" fill="#FFEA9A"/>
<path d="M124.704 186.325C123.695 186.325 122.721 186.475 121.801 186.749C125.99 187.998 129.045 191.879 129.045 196.475C129.045 201.071 125.99 204.952 121.801 206.201C122.721 206.476 123.695 206.625 124.704 206.625C130.308 206.625 134.851 202.081 134.851 196.475C134.851 190.869 130.308 186.325 124.704 186.325Z" fill="#FFE06F"/>
<path d="M35.1774 202.783H66.0173C76.6709 202.783 87.178 205.263 96.7068 210.028C106.236 214.792 116.743 217.273 127.396 217.273H168.203C169.915 217.273 171.303 218.66 171.303 220.373V232.849H32.626V205.334C32.626 203.926 33.7683 202.783 35.1774 202.783Z" fill="#B5EBB9"/>
<path d="M168.203 217.273H159.832C161.544 217.273 162.932 218.661 162.932 220.374V232.849H171.303V220.374C171.303 218.661 169.915 217.273 168.203 217.273Z" fill="#89E391"/>
<path d="M143.581 227.637C137.494 227.637 131.407 246.682 131.407 260.033C131.407 273.385 140.439 273.09 143.581 273.09C146.722 273.09 155.754 273.385 155.754 260.033C155.754 246.682 149.667 227.637 143.581 227.637Z" fill="#7DCF84"/>
<path d="M82.8812 187.392C78.4778 187.392 74.0742 198.732 74.0742 208.392C74.0742 218.051 80.6085 217.838 82.8812 217.838C85.1539 217.838 91.6882 218.051 91.6882 208.392C91.6882 198.732 87.2845 187.392 82.8812 187.392Z" fill="#7DCF84"/>
<path d="M50.1572 219.931C51.3129 219.931 52.2499 218.994 52.2499 217.838C52.2499 216.682 51.3129 215.745 50.1572 215.745C49.0014 215.745 48.0645 216.682 48.0645 217.838C48.0645 218.994 49.0014 219.931 50.1572 219.931Z" fill="#7DCF84"/>
<path d="M64.4016 246.919H55.9111C54.7551 246.919 53.8184 245.982 53.8184 244.826C53.8184 243.67 54.7551 242.733 55.9111 242.733H64.4016C65.5576 242.733 66.4943 243.67 66.4943 244.826C66.4943 245.982 65.5574 246.919 64.4016 246.919Z" fill="#91DEFF"/>
<path d="M86.7058 258.441H69.1103C67.9543 258.441 67.0176 257.504 67.0176 256.349C67.0176 255.193 67.9543 254.256 69.1103 254.256H86.7058C87.8619 254.256 88.7985 255.193 88.7985 256.349C88.7985 257.504 87.8619 258.441 86.7058 258.441Z" fill="#91DEFF"/>
<path d="M143.58 285.538C142.424 285.538 141.487 284.601 141.487 283.445V256.32C141.487 255.165 142.424 254.228 143.58 254.228C144.736 254.228 145.673 255.165 145.673 256.32V283.445C145.673 284.601 144.736 285.538 143.58 285.538Z" fill="#B57F5F"/>
<path d="M82.8818 226.813C81.7258 226.813 80.7891 225.876 80.7891 224.72V208.448C80.7891 207.292 81.7258 206.355 82.8818 206.355C84.0378 206.355 84.9745 207.292 84.9745 208.448V224.72C84.9745 225.876 84.0378 226.813 82.8818 226.813Z" fill="#B57F5F"/>
</g>
<path d="M43.525 363.378C43.525 363.378 43.3548 363.464 43.0143 363.549C42.6738 363.634 42.2481 363.804 41.6522 364.059C40.4604 364.485 38.6727 365.08 36.2891 365.591C33.9055 366.102 30.926 366.527 27.5208 366.272C25.8183 366.102 23.9454 365.761 22.1577 365.08C20.37 364.4 18.4972 363.293 16.8797 361.932C15.2623 360.57 13.8151 358.698 12.7936 356.57C12.2828 355.464 11.9423 354.358 11.772 353.166C11.6017 351.975 11.6017 350.699 11.8571 349.507C12.2828 347.039 13.5597 344.656 15.2623 342.529C16.9648 340.401 18.9228 338.444 20.9659 336.402C23.009 334.359 25.1372 332.232 26.7547 329.679C27.1803 328.998 27.606 328.402 27.9465 327.721L28.4572 326.7L28.8829 325.594C29.3936 324.147 29.6491 322.53 29.6491 320.999C29.7342 317.85 28.8829 314.531 27.1803 311.723C26.329 310.276 25.2223 308.999 24.0305 307.978C22.7536 306.872 21.3915 306.021 19.9443 305.085C18.5823 304.149 17.1351 303.298 15.9433 302.277C14.6663 301.255 13.6448 299.979 12.8787 298.617C11.3463 295.809 11.091 292.575 11.1761 289.426C11.2612 286.363 11.6869 283.299 12.7936 280.491C13.3043 279.129 13.9853 277.768 14.8366 276.661C15.6879 275.555 16.7946 274.534 18.0715 273.938C18.6674 273.598 19.3485 273.428 20.0295 273.257C20.7105 273.172 21.3915 273.087 22.0726 273.087C23.4346 273.087 24.7967 273.343 26.1587 273.598C27.5208 273.853 28.8829 274.023 30.1598 274.023C31.5219 274.023 32.8839 273.683 33.9906 273.087C35.0973 272.406 36.1188 271.385 36.3742 270.109C36.7147 268.832 36.3742 267.471 35.6081 266.535C35.1824 266.024 34.6716 265.684 33.9906 265.598C33.3947 265.513 32.7137 265.684 32.2029 265.939C31.6921 266.194 31.2665 266.62 30.926 267.215C30.6706 267.726 30.5855 268.407 30.7557 268.917C34.1609 271.811 38.3322 272.832 41.8225 272.577C45.3128 272.321 48.122 270.875 50.08 269.343C52.0379 267.811 53.1446 266.194 53.7405 265.088C54.4215 263.982 54.5918 263.301 54.5918 263.301C54.5918 263.301 54.5067 263.471 54.3364 263.726C54.1662 264.067 53.9959 264.492 53.6554 265.003C52.9744 266.109 51.8677 267.641 49.9097 269.173C48.0369 270.619 45.2276 272.066 41.7374 272.321C38.3322 272.577 34.246 271.555 30.926 268.662L31.0111 268.747C30.8408 268.237 30.926 267.726 31.0963 267.3C31.3516 266.875 31.7773 266.449 32.2029 266.194C32.7137 265.939 33.2245 265.769 33.7352 265.854C34.246 265.939 34.7568 266.279 35.0973 266.62C35.8634 267.471 36.1189 268.747 35.7783 269.853C35.523 271.045 34.5865 271.981 33.565 272.577C32.4583 273.172 31.1814 273.513 29.9044 273.513C28.6275 273.513 27.2654 273.343 25.9034 273.087C24.5413 272.832 23.1793 272.577 21.7321 272.577C21.0511 272.577 20.2849 272.577 19.6039 272.747C18.9228 272.917 18.1567 273.087 17.5607 273.428C16.1987 274.023 15.092 275.045 14.1556 276.236C13.2192 277.427 12.5381 278.789 12.0274 280.236C10.9207 283.044 10.495 286.193 10.4099 289.341C10.3248 292.49 10.6653 295.809 12.1976 298.702C12.9638 300.149 14.0705 301.426 15.3474 302.532C16.6244 303.638 17.9864 304.489 19.4336 305.425C20.7957 306.361 22.2429 307.212 23.4347 308.234C24.6265 309.255 25.7331 310.531 26.4993 311.893C28.1167 314.616 28.968 317.765 28.8829 320.913C28.8829 322.445 28.5424 323.977 28.1167 325.424L27.6911 326.445L27.1803 327.466C26.8398 328.147 26.4142 328.743 26.0736 329.424C24.4562 331.891 22.328 334.019 20.2849 336.061C18.2418 338.104 16.1987 340.061 14.4961 342.274C12.7936 344.401 11.5166 346.869 11.091 349.422C10.8356 350.699 10.8356 351.975 11.0058 353.252C11.1761 354.528 11.6017 355.634 12.0274 356.741C13.0489 358.953 14.4961 360.74 16.1987 362.187C17.9013 363.634 19.689 364.655 21.5618 365.336C23.4347 366.017 25.3075 366.357 27.01 366.527C30.5003 366.782 33.4798 366.357 35.8635 365.761C38.2471 365.251 40.0348 364.57 41.2266 364.144C41.8225 363.889 42.2481 363.719 42.5887 363.634C43.3548 363.464 43.525 363.378 43.525 363.378Z" fill="#263238"/>
<path d="M79.3677 282.959H169.689V375.463H79.3677V282.959Z" fill="#455A64"/>
<path d="M65.3213 276.662H183.65V282.96H65.3213V276.662Z" fill="#455A64"/>
<path d="M29.2253 282.959H79.3662V375.888H29.2253V282.959Z" fill="#263238"/>
<path d="M24.3731 276.662H65.4053V282.96H24.3731V276.662Z" fill="#263238"/>
<path d="M74.9389 283.3C74.9389 283.385 96.3062 283.556 122.611 283.556C148.916 283.556 170.283 283.47 170.283 283.3C170.283 283.215 148.916 283.045 122.611 283.045C96.3062 283.13 74.9389 283.215 74.9389 283.3Z" fill="#263238"/>
<path d="M412.579 211.133H423.56C430.03 211.133 435.564 215.813 436.585 222.196L445.439 276.66C447.311 287.978 438.543 298.275 427.051 298.275H197.118C190.137 298.275 185.029 291.637 186.817 284.914C188.009 280.234 192.265 276.915 197.118 276.915C204.013 276.915 210.142 272.49 212.356 266.022L226.572 223.983C228.786 217.345 235 212.835 242.066 212.75L412.579 211.133Z" fill="url(#paint1_linear)"/>
<g opacity="0.3">
<path opacity="0.3" d="M309.741 289.255C301.569 292.574 292.375 291.553 283.692 290.532C283.351 293 283.096 295.553 282.755 298.021C282.755 298.021 230.827 298.191 230.827 297.85L255.003 285.937L309.741 289.255Z" fill="black"/>
</g>
<g opacity="0.3">
<path opacity="0.3" d="M401 282.276C396.488 290.446 392.147 294.19 382.953 292.573C382.697 294.531 382.527 296.318 382.357 298.275H327.704V283.638L401 282.276Z" fill="black"/>
</g>
<g opacity="0.3">
<path opacity="0.3" d="M393.424 282.191C399.638 282.361 405.938 282.361 412.152 282.106C414.621 282.021 417.601 281.595 418.792 279.383C419.984 277.255 418.367 274.872 417.941 272.49C416.239 262.448 414.195 254.874 413.089 245.258C412.323 238.62 407.641 227.642 405.087 221.43C402.533 215.217 398.532 213.26 391.807 213.771L393.424 282.191Z" fill="black"/>
</g>
<path d="M260.453 231.558C260.453 231.558 284.8 234.451 287.695 233.004C290.589 231.473 296.888 217.176 296.888 217.176L311.871 224.494L310.935 224.579C310.935 224.579 299.953 246.535 292.206 246.62C284.46 246.705 259.006 242.45 259.006 242.45L245.471 240.748C246.918 229.515 260.453 231.558 260.453 231.558Z" fill="#FFBE9D"/>
<path d="M258.24 238.025L264.795 239.131L263.433 245.258L240.874 241.684L242.321 235.472L258.24 238.025Z" fill="#263238"/>
<path d="M259.092 235.982C258.241 237.94 255.772 238.961 253.814 238.28C253.558 238.195 253.218 238.025 252.877 238.195C252.707 238.28 252.622 238.45 252.537 238.62C251.941 239.557 251.345 240.493 250.664 241.514C250.153 241.599 249.728 241.173 249.642 240.663C249.557 240.152 249.728 239.727 249.813 239.216C250.324 237.514 250.834 235.897 251.345 234.195" fill="#FFBE9D"/>
<path d="M251.431 234.366C251.346 234.366 251.091 235.217 250.58 236.579C250.325 237.345 250.069 238.111 249.814 239.047C249.644 239.472 249.473 239.983 249.473 240.664C249.473 241.004 249.558 241.259 249.814 241.515C249.984 241.77 250.41 241.94 250.75 241.94H250.835L250.92 241.855C251.176 241.43 251.431 241.004 251.772 240.579C252.112 239.983 252.453 239.472 252.793 238.962C252.964 238.706 253.049 238.621 253.304 238.621C253.559 238.621 253.815 238.791 254.155 238.877C255.347 239.132 256.454 238.791 257.22 238.366C257.986 237.94 258.497 237.345 258.752 236.919C259.008 236.494 259.093 236.238 259.093 236.238C259.008 236.153 258.667 237.345 257.05 238.111C256.284 238.451 255.262 238.706 254.155 238.451C253.9 238.366 253.645 238.281 253.304 238.196C253.134 238.196 252.878 238.196 252.708 238.281C252.538 238.366 252.453 238.536 252.282 238.706C251.942 239.217 251.601 239.813 251.261 240.323C251.006 240.749 250.75 241.174 250.495 241.6L250.665 241.515C250.239 241.6 249.899 241.089 249.899 240.664C249.899 240.153 250.069 239.728 250.154 239.217C250.41 238.281 250.665 237.43 250.835 236.749C251.261 235.217 251.431 234.366 251.431 234.366Z" fill="#FFBE9D"/>
<path d="M207.415 288.236L215.162 284.321L222.653 298.873L211.331 304.745L210.82 303.894C208.522 299.979 199.498 283.895 198.902 280.832C198.306 277.343 207.415 288.236 207.415 288.236Z" fill="#263238"/>
<path d="M202.732 282.958C202.732 282.958 199.242 279.299 198.816 280.15C198.391 281.086 206.904 297.68 211.33 304.659L211.671 304.488L201.541 285.256C201.541 285.256 203.158 283.894 202.732 282.958Z" fill="#455A64"/>
<path d="M211.756 304.744C211.756 304.744 211.671 304.659 211.586 304.489C211.5 304.319 211.33 304.064 211.16 303.808C210.734 303.127 210.224 302.276 209.713 301.255C208.521 299.043 206.818 295.979 205.031 292.575C203.243 289.171 201.711 286.022 200.689 283.81C200.178 282.789 199.753 281.853 199.412 281.087C199.327 280.831 199.157 280.576 199.072 280.321C198.987 280.151 198.987 280.065 198.987 280.065C198.987 280.065 199.072 280.151 199.157 280.321C199.242 280.576 199.412 280.746 199.497 281.087C199.838 281.853 200.264 282.704 200.774 283.725C201.881 285.937 203.413 289.086 205.201 292.49C206.989 295.894 208.606 298.958 209.798 301.17C210.394 302.191 210.819 303.042 211.245 303.808C211.415 304.064 211.5 304.319 211.586 304.489C211.756 304.659 211.756 304.744 211.756 304.744Z" fill="#455A64"/>
<path d="M201.287 285.341C201.287 285.256 201.882 284.916 202.308 284.235C202.734 283.554 202.819 282.788 202.819 282.788C202.904 282.788 202.904 283.554 202.478 284.32C201.968 285.086 201.287 285.426 201.287 285.341Z" fill="#263238"/>
<path d="M205.676 288.469C205.635 288.445 205.776 288.13 205.989 287.765C206.203 287.4 206.409 287.123 206.45 287.147C206.491 287.17 206.35 287.485 206.136 287.85C205.923 288.216 205.716 288.492 205.676 288.469Z" fill="#455A64"/>
<path d="M206.899 289.388C206.854 289.376 206.894 289.071 206.989 288.707C207.084 288.344 207.198 288.058 207.244 288.07C207.289 288.082 207.249 288.387 207.154 288.75C207.059 289.114 206.945 289.399 206.899 289.388Z" fill="#455A64"/>
<path d="M208.196 288.726C207.976 288.311 207.831 287.956 207.873 287.934C207.914 287.912 208.126 288.231 208.347 288.646C208.567 289.062 208.711 289.416 208.67 289.438C208.628 289.46 208.416 289.141 208.196 288.726Z" fill="#455A64"/>
<path d="M209.799 289.171C209.799 289.171 209.373 288.915 209.118 288.49C208.862 287.979 208.692 287.554 208.777 287.554C208.862 287.554 209.033 287.894 209.288 288.405C209.543 288.83 209.799 289.171 209.799 289.171Z" fill="#455A64"/>
<path d="M206.646 287.383C206.646 287.383 206.391 287.043 206.135 286.447C206.05 286.107 205.88 285.766 205.88 285.341C205.88 285.085 205.795 284.915 205.795 284.66C205.795 284.575 205.88 284.405 205.965 284.319C206.05 284.234 206.306 284.234 206.391 284.234C207.327 284.915 207.242 286.021 206.987 286.617C206.816 286.958 206.646 287.128 206.561 287.213C206.391 287.298 206.306 287.383 206.306 287.383C206.306 287.383 206.646 287.128 206.901 286.532C206.987 286.277 207.072 285.851 206.987 285.426C206.901 285.085 206.731 284.575 206.306 284.319C206.135 284.234 205.965 284.405 205.965 284.575C205.965 284.745 205.965 285 206.05 285.256C206.135 285.681 206.22 286.021 206.306 286.362C206.561 287.043 206.731 287.383 206.646 287.383Z" fill="#455A64"/>
<path d="M206.48 287.128C206.48 287.128 206.65 286.873 207.076 286.702C207.331 286.617 207.586 286.532 207.927 286.617C208.182 286.702 208.608 286.702 208.778 287.128C208.863 287.383 208.693 287.553 208.523 287.638C208.353 287.724 208.182 287.724 208.012 287.724C207.671 287.724 207.416 287.638 207.246 287.553C206.82 287.468 206.565 287.298 206.48 287.128C206.565 287.213 206.82 287.298 207.246 287.383C207.501 287.468 207.757 287.468 208.012 287.468C208.267 287.468 208.693 287.383 208.608 287.128C208.523 286.873 208.182 286.787 207.927 286.702C207.671 286.702 207.416 286.702 207.161 286.787C206.735 286.958 206.565 287.213 206.48 287.128Z" fill="#455A64"/>
<path d="M268.026 262.618L324.126 263.214L311.782 289.254L275.943 288.574L270.665 369.248L248.787 368.738L252.958 278.787C253.214 270.362 259.683 263.554 268.026 262.618Z" fill="#455A64"/>
<path d="M333.574 269.086C333.574 269.086 288.03 242.79 276.538 246.96C265.045 251.13 206.562 283.553 206.562 283.553L219.331 307.296L252.276 290.361L253.213 279.809C253.213 268.916 260.193 263.044 269.983 263.044H278.496C278.496 263.044 298.671 286.957 311.696 289.34C333.574 293.254 333.574 269.086 333.574 269.086Z" fill="#455A64"/>
<path d="M252.196 289.85C252.196 289.85 252.196 289.765 252.196 289.595C252.196 289.425 252.196 289.169 252.111 288.914C252.026 288.318 252.026 287.467 251.941 286.361C251.855 284.149 251.855 280.83 252.877 277C253.388 275.043 254.154 273 255.431 271.043C256.708 269.086 258.07 266.958 260.198 265.341C262.241 263.725 264.965 262.874 267.86 262.618C268.541 262.533 269.307 262.533 269.988 262.533C270.754 262.533 271.435 262.533 272.201 262.533C273.734 262.533 275.181 262.533 276.713 262.533C276.883 262.533 276.968 262.533 277.054 262.533L276.883 262.448C281.14 266.788 285.566 270.618 289.568 274.022C293.569 277.426 297.314 280.319 300.549 282.702C303.784 285.085 306.423 286.872 308.296 288.063C309.232 288.659 309.998 289.084 310.509 289.425C310.765 289.595 310.935 289.68 311.105 289.765C311.275 289.85 311.275 289.85 311.275 289.85C311.275 289.85 311.19 289.765 311.105 289.68C310.935 289.595 310.765 289.425 310.594 289.34C310.084 288.999 309.403 288.574 308.466 287.893C306.593 286.616 304.039 284.744 300.805 282.361C297.655 279.979 293.909 277 289.908 273.596C285.907 270.192 281.565 266.363 277.309 262.023L277.224 261.938H277.139C277.054 261.938 276.883 261.938 276.798 261.938C275.266 261.938 273.734 261.938 272.286 261.938C271.52 261.938 270.839 261.938 270.073 261.938C269.307 261.938 268.626 261.938 267.86 262.023C264.965 262.278 262.156 263.129 260.028 264.831C257.9 266.448 256.452 268.66 255.175 270.618C253.984 272.66 253.132 274.788 252.707 276.745C251.77 280.66 251.77 283.978 251.941 286.191C252.026 287.297 252.111 288.148 252.196 288.744C252.196 288.999 252.281 289.255 252.281 289.425C252.196 289.765 252.196 289.85 252.196 289.85Z" fill="#263238"/>
<path d="M336.554 243.471C335.958 241.684 339.193 226.196 339.193 226.196L340.3 232.578L357.751 229.514C357.751 229.514 354.431 211.133 351.451 207.814C344.726 200.325 335.022 199.219 335.022 199.219L320.55 197.262C320.55 197.262 314.931 196.921 309.398 198.793L309.057 198.878V198.964C304.631 200.495 299.778 203.133 298.246 208.665L294.841 219.302L304.801 221.26C303.269 224.749 301.992 225.089 302.673 228.834L305.567 235.727C304.801 240.833 302.162 241.258 298.927 251.981L319.443 263.214C319.443 263.214 338.086 263.98 339.533 263.384C339.874 263.214 339.874 253.513 336.554 243.471Z" fill="#263238"/>
<path d="M308.294 216.154C308.209 216.154 307.868 217.261 306.762 218.792C306.251 219.558 305.57 220.494 304.889 221.516C304.208 222.537 303.442 223.728 303.016 225.175C302.59 226.622 302.59 228.068 302.846 229.26C303.101 230.536 303.612 231.557 304.037 232.408C304.463 233.259 304.889 233.855 305.229 234.366C305.485 234.791 305.74 235.047 305.74 235.047C305.825 235.047 305.229 234.025 304.378 232.323C303.952 231.472 303.527 230.451 303.271 229.26C303.016 228.068 303.016 226.707 303.442 225.345C303.867 223.984 304.633 222.877 305.229 221.771C305.91 220.75 306.591 219.814 307.017 218.963C307.528 218.112 307.868 217.431 308.039 216.92C308.209 216.41 308.294 216.154 308.294 216.154Z" fill="#455A64"/>
<path d="M329.513 218.479C329.448 218.354 331.218 217.298 333.467 216.121C335.716 214.944 337.592 214.09 337.658 214.215C337.723 214.34 335.953 215.396 333.704 216.573C331.455 217.751 329.578 218.604 329.513 218.479Z" fill="#455A64"/>
<path d="M318.507 206.871C318.092 205.822 317.862 204.929 317.993 204.878C318.124 204.826 318.567 205.634 318.982 206.683C319.397 207.732 319.627 208.624 319.496 208.676C319.365 208.728 318.922 207.92 318.507 206.871Z" fill="#455A64"/>
<path d="M315.39 219.077C315.276 217.813 315.298 216.779 315.439 216.766C315.579 216.753 315.785 217.768 315.898 219.032C316.012 220.296 315.99 221.331 315.849 221.343C315.709 221.356 315.503 220.341 315.39 219.077Z" fill="#455A64"/>
<path d="M325.177 228.947C325.161 228.807 326.285 228.564 327.686 228.404C329.087 228.245 330.236 228.229 330.252 228.369C330.268 228.509 329.145 228.752 327.744 228.912C326.342 229.071 325.193 229.087 325.177 228.947Z" fill="#455A64"/>
<path d="M315.104 229.941C315.019 229.941 315.36 231.473 315.87 233.26C316.381 235.047 316.722 236.494 316.807 236.494C316.892 236.494 316.722 234.962 316.296 233.175C315.87 231.303 315.275 229.856 315.104 229.941Z" fill="#455A64"/>
<path d="M323.845 242.215C323.764 242.1 324.542 241.417 325.582 240.69C326.623 239.963 327.532 239.467 327.612 239.583C327.693 239.698 326.915 240.381 325.875 241.108C324.835 241.835 323.926 242.331 323.845 242.215Z" fill="#455A64"/>
<path d="M308.837 244.624C308.177 243.168 307.747 241.941 307.875 241.883C308.004 241.825 308.642 242.958 309.302 244.413C309.961 245.869 310.392 247.096 310.263 247.154C310.135 247.212 309.496 246.08 308.837 244.624Z" fill="#455A64"/>
<path d="M319.755 251.151C319.729 251.013 321.129 250.627 322.883 250.289C324.637 249.95 326.081 249.789 326.108 249.927C326.135 250.065 324.734 250.452 322.98 250.79C321.226 251.128 319.782 251.29 319.755 251.151Z" fill="#455A64"/>
<path d="M298.842 214.793C298.757 214.878 299.608 215.644 300.8 216.154C302.077 216.665 303.184 216.75 303.184 216.58C303.184 216.495 302.162 216.239 300.97 215.729C299.778 215.218 298.927 214.707 298.842 214.793Z" fill="#455A64"/>
<path d="M305.996 210.622C306.082 210.622 306.337 209.26 306.337 207.644C306.337 205.942 306.082 204.665 305.911 204.665C305.826 204.665 305.826 206.027 305.826 207.644C305.911 209.26 305.826 210.622 305.996 210.622Z" fill="#455A64"/>
<path d="M334.082 206.761C332.445 206.174 331.156 205.59 331.204 205.458C331.251 205.325 332.617 205.693 334.255 206.28C335.892 206.867 337.181 207.45 337.134 207.583C337.086 207.716 335.72 207.348 334.082 206.761Z" fill="#455A64"/>
<path d="M346.857 214.793C346.942 214.793 347.453 213.516 347.793 211.9C348.134 210.198 348.134 208.836 348.048 208.836C347.963 208.836 347.708 210.198 347.367 211.814C347.027 213.431 346.686 214.793 346.857 214.793Z" fill="#455A64"/>
<path d="M348.124 222.024C345.869 221.923 344.047 221.728 344.053 221.587C344.059 221.446 345.892 221.413 348.146 221.514C350.401 221.614 352.223 221.81 352.217 221.95C352.211 222.091 350.378 222.124 348.124 222.024Z" fill="#455A64"/>
<path d="M328.726 205.261C324.81 204.75 322.001 201.261 322.342 197.346C322.512 194.879 322.682 192.751 322.682 192.751C322.682 192.751 316.723 191.304 317.149 185.177C317.574 179.05 319.873 165.264 319.873 165.264C327.194 162.881 335.196 164.583 340.9 169.774L341.751 170.54L337.154 199.048C336.473 203.048 332.727 205.856 328.726 205.261Z" fill="#FFBE9D"/>
<path d="M319.153 175.997C318.868 175.623 318.941 175.089 319.316 174.805C319.69 174.52 320.224 174.593 320.509 174.968C320.793 175.342 320.72 175.876 320.345 176.16C319.971 176.444 319.437 176.371 319.153 175.997Z" fill="#263238"/>
<path d="M318.938 174.88C319.023 174.965 319.619 174.625 320.47 174.625C321.321 174.71 321.917 175.221 322.002 175.05C322.087 174.965 322.002 174.795 321.747 174.625C321.491 174.37 321.066 174.199 320.555 174.114C320.044 174.114 319.533 174.199 319.278 174.455C319.023 174.625 318.938 174.795 318.938 174.88Z" fill="#263238"/>
<path d="M328.029 177.457C327.819 177.037 327.989 176.526 328.409 176.315C328.83 176.105 329.341 176.275 329.551 176.695C329.762 177.115 329.592 177.627 329.171 177.837C328.751 178.047 328.24 177.877 328.029 177.457Z" fill="#263238"/>
<path d="M327.964 176.412C328.049 176.497 328.645 176.157 329.496 176.157C330.348 176.242 330.943 176.753 331.029 176.583C331.114 176.497 331.029 176.327 330.773 176.157C330.518 175.902 330.092 175.732 329.581 175.646C329.071 175.646 328.56 175.732 328.304 175.987C328.049 176.157 327.964 176.412 327.964 176.412Z" fill="#263238"/>
<path d="M324.046 182.455C324.046 182.37 323.535 182.2 322.684 182.03C322.428 181.944 322.258 181.944 322.258 181.774C322.258 181.604 322.343 181.434 322.428 181.179C322.684 180.668 322.939 180.072 323.279 179.562C324.386 177.179 325.237 175.307 325.067 175.222C324.982 175.136 323.96 177.009 322.854 179.391C322.598 179.987 322.343 180.498 322.088 181.093C322.003 181.349 321.832 181.604 321.917 182.03C322.003 182.2 322.088 182.37 322.258 182.37C322.428 182.455 322.513 182.455 322.598 182.455C323.535 182.455 324.046 182.455 324.046 182.455Z" fill="#263238"/>
<path d="M322.683 192.667C322.683 192.667 326.514 193.347 330.771 191.135C330.771 191.135 328.472 195.305 322.513 194.283L322.683 192.667Z" fill="#FFBE9D"/>
<path d="M339.454 182.88C336.985 184.327 335.028 179.391 334.347 176.328C333.58 173.264 333.751 170.115 334.006 166.967C334.091 165.945 334.261 164.839 334.942 164.073C335.709 163.307 335.794 164.328 336.645 163.733C338.092 162.626 336.9 162.456 338.177 162.797C340.306 163.392 344.562 167.903 344.647 170.285C344.732 172.668 344.051 174.966 343.37 177.264C343.03 178.285 342.774 179.306 342.434 180.412C342.178 181.178 342.008 181.944 341.497 182.455C340.901 182.965 340.05 183.306 339.454 182.88Z" fill="#2B4654"/>
<path d="M340.221 177.944C340.306 177.433 340.732 177.093 341.243 177.178C342.349 177.348 344.137 178.029 343.882 181.178C343.456 185.688 339.37 183.901 339.37 183.731C339.37 183.646 339.966 179.646 340.221 177.944Z" fill="#FFBE9D"/>
<path d="M340.56 182.114C340.56 182.114 340.645 182.199 340.73 182.284C340.816 182.369 341.071 182.454 341.326 182.369C341.837 182.199 342.263 181.518 342.348 180.752C342.433 180.327 342.348 179.986 342.263 179.646C342.178 179.306 342.007 179.05 341.752 178.965C341.497 178.88 341.326 179.05 341.241 179.135C341.156 179.22 341.156 179.306 341.156 179.391C341.156 179.391 341.071 179.306 341.156 179.135C341.156 179.05 341.241 178.965 341.326 178.88C341.412 178.795 341.582 178.795 341.752 178.795C342.093 178.88 342.348 179.22 342.518 179.561C342.688 179.901 342.688 180.412 342.688 180.837C342.603 181.773 342.007 182.539 341.412 182.624C341.071 182.71 340.816 182.539 340.73 182.454C340.56 182.199 340.56 182.114 340.56 182.114Z" fill="#FFBE9D"/>
<path d="M334.858 164.158C332.985 168.072 329.324 170.966 325.068 171.902C324.727 171.987 324.302 171.987 324.046 171.732C323.706 171.391 323.961 170.796 324.302 170.455C324.642 170.115 325.153 169.945 325.408 169.604C324.557 169.945 323.791 170.2 322.94 170.54C322.514 170.71 322.088 170.881 321.663 170.881C321.237 170.881 320.811 170.71 320.556 170.37C320.301 170.03 320.471 169.434 320.897 169.264C320.301 170.03 318.939 169.945 318.258 169.179C317.576 168.413 317.577 167.307 317.917 166.37C318.343 165.434 319.024 164.754 319.875 164.158C323.45 161.605 328.132 161.179 332.559 161.52C333.921 161.605 335.283 161.775 336.56 162.286C337.837 162.796 339.029 163.647 339.71 164.754" fill="#2B4654"/>
<path d="M344.56 169.519C345.327 167.732 347.37 166.71 349.328 166.625C351.286 166.54 353.159 167.136 355.031 167.732C355.883 168.072 356.904 168.498 357.074 169.434C357.245 170.2 356.734 170.965 356.053 171.391C355.372 171.816 354.606 171.902 353.84 171.987C354.435 172.242 355.031 172.412 355.542 172.838C356.053 173.263 356.393 173.859 356.308 174.455C356.223 175.05 355.627 175.646 355.031 175.476C354.35 175.306 353.754 174.369 353.073 174.71C352.733 174.88 352.648 175.391 352.648 175.816C352.733 176.242 352.903 176.582 352.903 177.008C352.903 177.859 352.052 178.454 351.286 178.539C350.434 178.624 349.668 178.199 349.072 177.603C348.476 177.093 348.051 176.412 347.54 175.731C346.263 174.114 344.56 172.923 342.943 171.731" fill="#2B4654"/>
<path d="M323.488 185.861C322.978 185.775 322.583 185.593 322.607 185.453C322.63 185.314 323.063 185.271 323.573 185.357C324.083 185.443 324.477 185.625 324.454 185.764C324.43 185.903 323.998 185.947 323.488 185.861Z" fill="#263238"/>
<path d="M329.068 173.179C329.068 173.264 329.834 173.264 330.856 173.434C331.792 173.604 332.558 173.859 332.558 173.774C332.643 173.689 331.962 173.179 330.941 173.008C329.834 172.838 329.068 173.094 329.068 173.179Z" fill="#263238"/>
<path d="M320.555 171.817C320.555 171.902 321.236 171.902 321.917 171.987C322.683 172.072 323.279 172.242 323.279 172.072C323.364 171.987 322.768 171.647 321.917 171.477C321.151 171.477 320.555 171.732 320.555 171.817Z" fill="#263238"/>
<path d="M356.136 229.77C356.136 229.77 360.818 255.47 354.859 258.959C348.9 262.448 314.508 266.192 314.508 266.192C314.508 266.192 313.912 256.661 325.149 254.704C336.301 252.747 342.771 250.704 342.771 250.704L341.154 232.408L356.136 229.77Z" fill="#FFBE9D"/>
<path d="M323.276 261.939L379.376 261.258L367.628 287.639L331.789 287.809L328.299 368.569H306.421L308.549 278.533C308.634 270.023 314.933 263.045 323.276 261.939Z" fill="#263238"/>
<path d="M376.568 289.765L378.186 367.291L352.817 368.567C352.817 368.567 348.816 292.573 350.774 271.043C352.136 256.321 408.492 262.618 408.492 262.618C409.258 291.977 376.568 289.765 376.568 289.765Z" fill="#263238"/>
<path d="M376.437 290.699C376.297 290.691 376.278 289.01 376.395 286.946C376.513 284.881 376.722 283.214 376.863 283.222C377.004 283.23 377.023 284.91 376.905 286.975C376.788 289.039 376.578 290.707 376.437 290.699Z" fill="#455A64"/>
<path d="M377.844 261.429C377.844 261.429 377.673 261.429 377.333 261.429C376.992 261.429 376.482 261.429 375.971 261.429C374.779 261.429 373.077 261.514 370.948 261.599C368.82 261.684 366.266 261.939 363.457 262.365C360.648 262.79 357.583 263.641 354.774 265.428C354.093 265.854 353.497 266.45 352.901 267.045C352.39 267.641 351.965 268.407 351.709 269.088C351.198 270.534 350.943 272.066 350.858 273.428C350.517 276.236 350.603 278.789 350.517 280.917C350.517 282.959 350.517 284.746 350.517 285.937C350.517 286.533 350.517 286.959 350.517 287.299C350.517 287.639 350.517 287.81 350.517 287.81C350.517 287.81 350.517 287.639 350.602 287.299C350.602 286.959 350.688 286.533 350.688 285.937C350.773 284.746 350.773 283.044 350.858 280.917C350.943 278.789 350.943 276.236 351.284 273.513C351.454 272.151 351.709 270.705 352.22 269.258C352.731 267.811 353.837 266.705 355.114 265.769C357.753 263.982 360.818 263.131 363.542 262.705C366.351 262.28 368.82 262.024 370.948 261.854C372.991 261.684 374.694 261.599 375.971 261.514C376.567 261.429 376.992 261.429 377.333 261.429C377.673 261.429 377.844 261.429 377.844 261.429Z" fill="#455A64"/>
<path d="M408.575 262.281L405.17 234.964L408.745 206.966C406.362 193.86 388.059 193.009 388.059 193.009L373.672 192.754C373.672 192.754 364.223 192.414 356.902 196.498L344.132 202.115C348.814 204.413 352.475 207.902 353.582 211.816L360.137 212.412L360.307 232.581H360.392L361.924 261.345L408.575 262.281Z" fill="#455A64"/>
<path d="M388.145 192.583C388.059 192.583 387.889 193.774 386.868 195.391C385.846 197.008 383.548 198.71 380.568 198.71C377.589 198.71 375.205 197.008 374.269 195.476C373.758 194.71 373.502 193.945 373.332 193.434C373.162 192.923 373.162 192.583 373.077 192.583C373.077 192.583 373.077 192.923 373.162 193.434C373.247 193.945 373.502 194.796 373.928 195.647C374.439 196.498 375.29 197.434 376.397 198.114C377.503 198.795 378.951 199.221 380.483 199.221C382.015 199.221 383.462 198.795 384.569 198.114C385.676 197.434 386.527 196.498 387.038 195.647C387.549 194.796 387.804 194.03 387.889 193.519C388.145 192.923 388.145 192.668 388.145 192.583Z" fill="#263238"/>
<path d="M342.686 237.516C341.835 237.261 341.069 236.495 341.069 235.559C340.984 234.623 341.58 233.772 342.516 233.431C342.176 232.07 342.772 230.453 343.878 229.602C345.07 228.751 346.688 228.666 347.879 229.432C348.645 226.709 351.37 224.751 354.179 224.921C356.988 225.007 359.542 227.304 360.053 230.027C361.159 229.687 362.436 229.857 363.288 230.538C364.224 231.219 364.65 232.41 364.565 233.602L342.686 237.516Z" fill="#E0E0E0"/>
<path d="M366.181 232.751L364.819 261.345L348.814 264.493L339.45 237.176L366.181 232.751Z" fill="url(#paint2_linear)"/>
<path opacity="0.2" d="M366.181 232.751L364.819 261.345L361.499 262.025V233.517L366.181 232.751Z" fill="white"/>
<path opacity="0.3" d="M361.496 233.517V262.025L358.091 262.621L356.303 234.368L361.496 233.517Z" fill="black"/>
<path opacity="0.2" d="M358.092 262.621L356.304 234.368L350.515 235.389L355.197 263.217L358.092 262.621Z" fill="white"/>
<path opacity="0.3" d="M350.518 235.389L355.2 263.216L351.625 263.897L344.814 236.325L350.518 235.389Z" fill="black"/>
<path opacity="0.2" d="M344.813 236.324L351.623 263.897L348.814 264.492L339.45 237.175L344.813 236.324Z" fill="white"/>
<path d="M399.123 204.411C394.611 207.985 391.887 213.432 391.632 219.133C391.291 228.069 390.695 240.494 390.355 241.089C389.333 243.047 362.262 241.345 359.368 241.174C358.857 241.004 357.921 240.749 355.963 240.153C355.963 240.153 349.663 234.707 348.471 236.324C347.279 237.941 351.791 239.047 352.643 242.281C353.494 245.514 344.47 242.961 343.959 242.621L341.661 241.94C341.661 241.94 343.023 246.365 344.215 247.727C347.96 252.237 356.558 254.45 356.558 254.45C356.558 254.45 391.632 265.853 405.848 256.407C410.445 253.344 411.296 223.218 409.509 211.474C408.828 206.879 404.827 203.475 400.144 203.56L399.123 204.411Z" fill="#FFBE9D"/>
<path d="M347.109 246.876C347.109 246.791 346.173 246.365 344.981 245.77C343.789 245.174 342.853 244.663 342.853 244.749C342.853 244.834 343.704 245.429 344.896 246.025C346.003 246.621 347.109 246.961 347.109 246.876Z" fill="#EB996E"/>
<path d="M397 196.157C397 196.157 414.792 197.689 411.897 229.261L389.253 224.24L397 196.157Z" fill="#455A64"/>
<path d="M397.512 196.498C397.512 196.498 396.746 196.583 395.554 197.349C394.362 198.03 392.915 199.562 391.808 201.859C389.595 206.37 388.914 213.348 388.318 220.752C388.233 221.858 388.148 222.964 388.063 224.07V224.241H388.233C394.873 225.517 400.747 226.794 404.918 227.815C407.046 228.325 408.664 228.751 409.856 229.091C410.366 229.262 410.877 229.347 411.218 229.432C411.558 229.517 411.643 229.517 411.729 229.517C411.729 229.517 411.558 229.432 411.303 229.347C411.047 229.261 410.537 229.091 410.026 228.921C408.919 228.581 407.217 228.07 405.174 227.56C401.002 226.453 395.128 225.092 388.488 223.9L388.659 224.156C388.744 223.134 388.829 222.028 388.914 220.837C389.51 213.348 390.191 206.455 392.234 202.03C393.256 199.817 394.618 198.285 395.809 197.519C396.746 196.753 397.512 196.583 397.512 196.498Z" fill="#263238"/>
<path d="M380.571 198.878C376.315 198.878 372.91 195.389 372.995 191.219C372.995 188.581 373.08 186.284 373.08 186.284C373.08 186.284 366.951 185.688 366.525 179.646C366.099 173.604 366.269 159.647 366.269 159.647C373.08 156.243 381.252 156.754 387.637 161.009L388.573 161.605L388.318 191.39C388.148 195.474 384.742 198.878 380.571 198.878Z" fill="#FFBE9D"/>
<path d="M373.828 178.542C373.218 178.495 372.733 178.342 372.744 178.202C372.755 178.061 373.258 177.986 373.867 178.033C374.477 178.081 374.962 178.233 374.951 178.374C374.94 178.514 374.437 178.59 373.828 178.542Z" fill="#263238"/>
<path d="M376.399 164.157C376.399 164.242 377.251 164.072 378.272 164.157C379.294 164.242 380.06 164.498 380.145 164.413C380.23 164.328 379.464 163.817 378.357 163.732C377.165 163.647 376.314 164.072 376.399 164.157Z" fill="#263238"/>
<path d="M367.119 164.413C367.205 164.498 367.8 164.328 368.652 164.243C369.503 164.158 370.184 164.328 370.184 164.158C370.269 164.073 369.503 163.732 368.567 163.817C367.63 163.817 367.034 164.328 367.119 164.413Z" fill="#263238"/>
<path d="M372.911 175.902C372.911 175.987 372.4 175.987 371.548 176.072C371.463 176.072 371.293 176.072 371.208 176.072C371.038 176.072 370.867 175.902 370.782 175.731C370.612 175.391 370.782 175.051 370.867 174.795C371.038 174.2 371.208 173.689 371.378 173.008C372.144 170.54 372.825 168.583 372.996 168.583C373.081 168.583 372.57 170.625 371.804 173.093C371.634 173.689 371.463 174.285 371.208 174.795C371.123 175.051 371.038 175.306 371.123 175.391C371.123 175.476 371.293 175.561 371.548 175.561C372.4 175.731 372.911 175.817 372.911 175.902Z" fill="#263238"/>
<path d="M372.994 186.114C372.994 186.114 376.825 186.199 380.741 183.391C380.741 183.391 379.124 187.901 373.08 187.731L372.994 186.114Z" fill="#EB996E"/>
<path d="M386.953 168.243C387.038 168.243 390.783 167.733 390.443 172.073C390.102 176.498 385.761 174.626 385.761 174.541C385.761 174.455 386.953 168.243 386.953 168.243Z" fill="#FFBE9D"/>
<path d="M387.208 173.179C387.208 173.179 387.294 173.264 387.379 173.349C387.464 173.434 387.719 173.434 387.975 173.434C388.485 173.264 388.911 172.583 388.996 171.818C389.081 171.392 388.996 171.052 388.911 170.711C388.826 170.371 388.571 170.116 388.4 170.116C388.145 170.03 387.975 170.201 387.89 170.286C387.804 170.371 387.804 170.456 387.804 170.541C387.804 170.541 387.719 170.456 387.804 170.286C387.804 170.201 387.89 170.116 387.975 170.03C388.06 169.945 388.23 169.945 388.4 169.945C388.741 170.03 388.996 170.371 389.166 170.711C389.337 171.052 389.422 171.477 389.337 171.988C389.252 172.839 388.741 173.69 388.06 173.775C387.719 173.86 387.464 173.69 387.379 173.605C387.208 173.264 387.208 173.179 387.208 173.179Z" fill="#EB996E"/>
<path d="M366.693 159.904C365.16 159.563 364.139 157.946 364.224 156.414C364.309 154.883 365.33 153.436 366.778 152.84C368.14 152.159 369.842 152.33 371.289 152.925C371.715 150.713 373.928 148.926 376.227 149.011C378.525 149.096 380.568 150.968 380.909 153.181C381.079 151.989 382.356 151.394 383.548 151.308C384.74 151.223 386.017 151.564 386.783 152.5C387.549 153.436 387.634 154.883 386.783 155.734C388.06 155.563 389.507 155.819 390.529 156.67C391.635 157.436 392.316 158.712 392.231 160.074C392.146 161.35 391.124 162.627 389.848 162.882C389.422 162.967 389.252 162.712 389.081 163.052C388.911 163.308 388.911 164.073 388.911 164.329C388.911 165.775 388.996 167.052 388.656 168.499C387.89 168.073 386.953 168.669 386.528 169.435C386.187 170.201 386.187 171.137 386.272 171.988C385.932 172.583 384.995 172.413 384.57 171.818C384.144 171.307 384.144 170.541 384.144 169.86C384.144 167.563 384.059 165.18 384.059 162.882C383.378 163.222 382.526 163.222 381.76 162.882C380.994 162.542 380.568 161.776 380.568 161.01C379.547 161.946 378.185 162.457 376.823 162.286C375.461 162.116 374.184 161.35 373.503 160.159C372.737 160.755 372.056 161.35 371.204 161.691C370.353 162.031 369.417 162.201 368.48 161.946C367.629 161.606 366.863 160.84 366.863 159.904C366.948 159.818 367.033 159.733 367.203 159.648" fill="url(#paint3_linear)"/>
<path d="M367.776 169.013C367.353 169.005 367.016 168.656 367.023 168.233C367.03 167.811 367.379 167.474 367.802 167.481C368.225 167.488 368.562 167.837 368.555 168.26C368.548 168.683 368.199 169.02 367.776 169.013Z" fill="#263238"/>
<path d="M367.031 167.903C367.116 167.988 367.712 167.477 368.564 167.477C369.415 167.392 370.011 167.903 370.096 167.733C370.181 167.648 370.011 167.477 369.755 167.307C369.5 167.137 369.074 166.967 368.479 166.967C367.968 166.967 367.542 167.222 367.287 167.392C367.031 167.648 366.946 167.818 367.031 167.903Z" fill="#263238"/>
<path d="M376.973 169.012C376.55 169.004 376.213 168.655 376.22 168.233C376.228 167.81 376.576 167.473 377 167.48C377.423 167.487 377.76 167.836 377.752 168.259C377.745 168.682 377.396 169.019 376.973 169.012Z" fill="#263238"/>
<path d="M376.228 168.074C376.313 168.159 376.909 167.648 377.76 167.648C378.611 167.563 379.207 168.074 379.292 167.904C379.377 167.818 379.207 167.648 378.952 167.478C378.696 167.308 378.271 167.138 377.76 167.138C377.249 167.138 376.824 167.393 376.568 167.563C376.313 167.818 376.228 167.989 376.228 168.074Z" fill="#263238"/>
</g>
<defs>
<linearGradient id="paint0_linear" x1="487.681" y1="58.5084" x2="419.431" y2="58.5084" gradientUnits="userSpaceOnUse">
<stop stop-color="#3AC882"/>
<stop offset="1" stop-color="#97E98A"/>
</linearGradient>
<linearGradient id="paint1_linear" x1="445.691" y1="254.704" x2="186.458" y2="254.704" gradientUnits="userSpaceOnUse">
<stop stop-color="#3AC882"/>
<stop offset="1" stop-color="#97E98A"/>
</linearGradient>
<linearGradient id="paint2_linear" x1="366.181" y1="248.622" x2="339.45" y2="248.622" gradientUnits="userSpaceOnUse">
<stop stop-color="#3AC882"/>
<stop offset="1" stop-color="#97E98A"/>
</linearGradient>
<linearGradient id="paint3_linear" x1="392.238" y1="160.683" x2="364.219" y2="160.683" gradientUnits="userSpaceOnUse">
<stop stop-color="#3AC882"/>
<stop offset="1" stop-color="#97E98A"/>
</linearGradient>
</defs>
</svg>
