<svg width="36" height="36" viewBox="0 0 36 36" fill="none" xmlns="http://www.w3.org/2000/svg">
<rect x="8" y="6" width="21" height="10.0435" fill="white"/>
<path d="M17.0402 13.5591H15.7221L16.5465 8.46204H17.8645L17.0402 13.5591Z" fill="#0B397B"/>
<path d="M21.8179 8.58675C21.5579 8.48362 21.1455 8.36975 20.6356 8.36975C19.334 8.36975 18.4173 9.06379 18.4117 10.056C18.4009 10.7881 19.068 11.1948 19.5669 11.4389C20.0769 11.6883 20.2502 11.8511 20.2502 12.0734C20.245 12.4149 19.8381 12.5723 19.4587 12.5723C18.9324 12.5723 18.6504 12.4911 18.2219 12.3012L18.0484 12.2197L17.8639 13.3639C18.1731 13.5047 18.7426 13.6297 19.334 13.6352C20.717 13.6352 21.6174 12.9519 21.6281 11.8945C21.6333 11.3142 21.2811 10.8696 20.5217 10.5063C20.0607 10.2731 19.7783 10.1159 19.7783 9.87724C19.7837 9.66031 20.0171 9.43812 20.5375 9.43812C20.966 9.42723 21.2809 9.53022 21.5194 9.63328L21.6386 9.68741L21.8179 8.58675Z" fill="#0B397B"/>
<path d="M23.5705 11.7534C23.6791 11.4606 24.0967 10.3273 24.0967 10.3273C24.0913 10.3382 24.2051 10.0291 24.2702 9.83929L24.3623 10.2785C24.3623 10.2785 24.6119 11.4986 24.6661 11.7534C24.4601 11.7534 23.8308 11.7534 23.5705 11.7534ZM25.1975 8.46204H24.178C23.8636 8.46204 23.6247 8.55414 23.4891 8.88494L21.5312 13.559H22.9142C22.9142 13.559 23.1419 12.9299 23.1909 12.7945C23.3426 12.7945 24.688 12.7945 24.8832 12.7945C24.921 12.9734 25.0405 13.559 25.0405 13.559H26.2609L25.1975 8.46204Z" fill="#0B397B"/>
<path d="M14.621 8.46204L13.3301 11.9378L13.1891 11.2328C12.9504 10.4195 12.202 9.53574 11.3667 9.09632L12.5491 13.5537H13.943L16.0148 8.46204H14.621Z" fill="#0B397B"/>
<path d="M12.1315 8.46204H10.0108L9.98911 8.56504C11.6434 8.98806 12.739 10.0078 13.1891 11.2334L12.7281 8.89054C12.6522 8.56496 12.4189 8.47278 12.1315 8.46204Z" fill="#FAA61A"/>
<rect x="8" y="14.9999" width="21" height="1.5" fill="#FAA61A"/>
<rect x="8" y="6" width="21" height="1.5" fill="#0B397B"/>
<rect width="21" height="11.6978" transform="translate(8 18.1799)" fill="#231E20"/>
<path fill-rule="evenodd" clip-rule="evenodd" d="M15.6364 28.0001V28.5366V29.0731H15.4016V28.9428C15.3271 29.0395 15.214 29.1001 15.0604 29.1001C14.7575 29.1001 14.52 28.8645 14.52 28.5366C14.52 28.209 14.7575 27.9731 15.0604 27.9731C15.214 27.9731 15.3271 28.0337 15.4016 28.1304V28.0001H15.6364ZM15.0896 28.193C14.8863 28.193 14.7619 28.3479 14.7619 28.5365C14.7619 28.7251 14.8863 28.8801 15.0896 28.8801C15.2839 28.8801 15.415 28.7318 15.415 28.5365C15.415 28.3413 15.2839 28.193 15.0896 28.193ZM23.5733 28.5365C23.5733 28.3479 23.6978 28.193 23.9011 28.193C24.0956 28.193 24.2265 28.3413 24.2265 28.5365C24.2265 28.7318 24.0956 28.8801 23.9011 28.8801C23.6978 28.8801 23.5733 28.7251 23.5733 28.5365ZM24.4482 27.5692V28.5366V29.0731H24.2131V28.9428C24.1386 29.0395 24.0255 29.1001 23.8719 29.1001C23.569 29.1001 23.3315 28.8645 23.3315 28.5366C23.3315 28.209 23.569 27.9731 23.8719 27.9731C24.0255 27.9731 24.1386 28.0337 24.2131 28.1304V27.5692H24.4482ZM18.5519 28.182C18.7032 28.182 18.8005 28.2763 18.8253 28.4423H18.2648C18.2899 28.2873 18.3845 28.182 18.5519 28.182ZM18.0185 28.5366C18.0185 28.2021 18.2399 27.9731 18.5565 27.9731C18.8591 27.9731 19.0671 28.2021 19.0694 28.5366C19.0694 28.568 19.0671 28.5972 19.0648 28.6263H18.2626C18.2965 28.8195 18.4344 28.8891 18.5857 28.8891C18.6941 28.8891 18.8095 28.8485 18.9 28.7769L19.0151 28.9498C18.8839 29.0598 18.735 29.1001 18.5723 29.1001C18.2489 29.1001 18.0185 28.8778 18.0185 28.5366ZM21.3925 28.5365C21.3925 28.3479 21.517 28.193 21.7203 28.193C21.9145 28.193 22.0457 28.3413 22.0457 28.5365C22.0457 28.7318 21.9145 28.8801 21.7203 28.8801C21.517 28.8801 21.3925 28.7251 21.3925 28.5365ZM22.2671 28.0001V28.5366V29.0731H22.0323V28.9428C21.9575 29.0395 21.8447 29.1001 21.6911 29.1001C21.3882 29.1001 21.1507 28.8645 21.1507 28.5366C21.1507 28.209 21.3882 27.9731 21.6911 27.9731C21.8447 27.9731 21.9575 28.0337 22.0323 28.1304V28.0001H22.2671ZM20.0661 28.5366C20.0661 28.8622 20.2942 29.1001 20.6424 29.1001C20.8051 29.1001 20.9134 29.0641 21.0309 28.9721L20.9181 28.7835C20.8299 28.8465 20.7373 28.8801 20.6354 28.8801C20.4479 28.8778 20.31 28.7432 20.31 28.5366C20.31 28.33 20.4479 28.1954 20.6354 28.1931C20.7373 28.1931 20.8299 28.2267 20.9181 28.2897L21.0309 28.1011C20.9134 28.0091 20.8051 27.9731 20.6424 27.9731C20.2942 27.9731 20.0661 28.211 20.0661 28.5366ZM22.8095 28.1304C22.8705 28.0361 22.9587 27.9731 23.0942 27.9731C23.1418 27.9731 23.2096 27.9821 23.2616 28.0024L23.1892 28.2224C23.1395 28.2021 23.0898 28.1954 23.0422 28.1954C22.8886 28.1954 22.8118 28.294 22.8118 28.4716V29.0731H22.5767V28.0001H22.8095V28.1304ZM16.7981 28.0854C16.6851 28.0114 16.5294 27.9731 16.3576 27.9731C16.0839 27.9731 15.9078 28.1034 15.9078 28.3167C15.9078 28.4916 16.0389 28.5996 16.2805 28.6332L16.3915 28.6489C16.5203 28.6669 16.5811 28.7005 16.5811 28.7612C16.5811 28.8442 16.4952 28.8915 16.3349 28.8915C16.1722 28.8915 16.0547 28.8398 15.9756 28.7792L15.8649 28.9608C15.9937 29.0551 16.1564 29.1001 16.3325 29.1001C16.6445 29.1001 16.8253 28.9541 16.8253 28.7499C16.8253 28.5613 16.683 28.4626 16.4479 28.4289L16.3372 28.413C16.2355 28.3996 16.154 28.3796 16.154 28.3077C16.154 28.229 16.2309 28.182 16.3597 28.182C16.4976 28.182 16.631 28.2337 16.6965 28.274L16.7981 28.0854ZM19.5441 28.1304C19.6049 28.0361 19.6931 27.9731 19.8287 27.9731C19.8763 27.9731 19.944 27.9821 19.996 28.0024L19.9236 28.2224C19.8739 28.2021 19.8243 28.1954 19.7767 28.1954C19.623 28.1954 19.5462 28.294 19.5462 28.4716V29.0731H19.3113V28.0001H19.5441V28.1304ZM17.8242 28.0001H17.4401V27.6745H17.2026V28.0001H16.9835V28.2134H17.2026V28.7028C17.2026 28.9518 17.2999 29.1001 17.5777 29.1001C17.6796 29.1001 17.797 29.0687 17.8715 29.0171L17.8038 28.8172C17.7337 28.8575 17.6568 28.8778 17.5958 28.8778C17.4784 28.8778 17.4401 28.8059 17.4401 28.6982V28.2134H17.8242V28.0001ZM14.3123 28.3997V29.0731H14.0749V28.476C14.0749 28.294 13.9981 28.1931 13.8377 28.1931C13.6817 28.1931 13.5733 28.292 13.5733 28.4783V29.0731H13.3359V28.476C13.3359 28.294 13.257 28.1931 13.101 28.1931C12.9404 28.1931 12.8364 28.292 12.8364 28.4783V29.0731H12.5992V28.0001H12.8343V28.1324C12.9225 28.0068 13.0353 27.9731 13.1507 27.9731C13.3157 27.9731 13.4331 28.0451 13.5076 28.164C13.6072 28.0135 13.7495 27.9708 13.8874 27.9731C14.1496 27.9754 14.3123 28.146 14.3123 28.3997Z" fill="white"/>
<path d="M20.28 26.1767H16.7202V19.8218H20.28V26.1767Z" fill="#FF5F00"/>
<path d="M16.9461 22.9993C16.9461 21.7102 17.5537 20.5619 18.4999 19.8218C17.8079 19.2807 16.9347 18.9577 15.9857 18.9577C13.7389 18.9577 11.9176 20.7672 11.9176 22.9993C11.9176 25.2314 13.7389 27.0409 15.9857 27.0409C16.9347 27.0409 17.8079 26.7179 18.4999 26.1768C17.5537 25.4367 16.9461 24.2884 16.9461 22.9993Z" fill="#EB001B"/>
<path d="M25.0824 22.9993C25.0824 25.2314 23.2611 27.0409 21.0144 27.0409C20.0653 27.0409 19.1921 26.7179 18.4999 26.1768C19.4463 25.4367 20.0539 24.2884 20.0539 22.9993C20.0539 21.7102 19.4463 20.5619 18.4999 19.8218C19.1921 19.2807 20.0653 18.9577 21.0144 18.9577C23.2611 18.9577 25.0824 20.7672 25.0824 22.9993Z" fill="#F79E1B"/>
</svg>
