<svg width="36" height="36" viewBox="0 0 36 36" fill="none" xmlns="http://www.w3.org/2000/svg">
<path d="M24.5179 8.00072C22.0454 8.00072 20.0411 9.91994 20.0411 12.2851C20.0411 14.6502 22.0506 16.5694 24.5179 16.5694C26.9853 16.5694 29 14.6502 29 12.2851C29 9.91994 26.9958 8.00072 24.5179 8.00072ZM24.5179 14.113C24.0229 14.1221 23.5445 13.935 23.1878 13.5927C22.8311 13.2504 22.6254 12.781 22.6158 12.2877C22.6413 11.8021 22.8529 11.3448 23.2068 11.0101C23.5607 10.6754 24.03 10.4888 24.5179 10.4888C25.0059 10.4888 25.4752 10.6754 25.8291 11.0101C26.183 11.3448 26.3946 11.8021 26.4201 12.2877C26.4105 12.781 26.2048 13.2504 25.8481 13.5927C25.4914 13.935 25.013 14.1221 24.5179 14.113ZM18.7617 11.2185V16.5877H16.1766V11.1925C16.1766 10.9919 16.0966 10.7996 15.9543 10.6577C15.812 10.5159 15.619 10.4363 15.4178 10.4363C15.2165 10.4363 15.0235 10.5159 14.8812 10.6577C14.7389 10.7996 14.659 10.9919 14.659 11.1925V16.5877H12.0844V11.1925C12.0844 10.9919 12.0044 10.7996 11.8621 10.6577C11.7198 10.5159 11.5268 10.4363 11.3256 10.4363C11.1243 10.4363 10.9313 10.5159 10.789 10.6577C10.6467 10.7996 10.5668 10.9919 10.5668 11.1925V16.5877H8V11.2185C8.01924 10.348 8.38389 9.52053 9.01408 8.9174C9.64427 8.31426 10.4886 7.98464 11.3622 8.00072C12.0854 7.99924 12.7905 8.22558 13.3769 8.64741C13.9628 8.22658 14.6668 8.00032 15.389 8.00072C16.2642 7.98253 17.1108 8.31114 17.7431 8.91443C18.3754 9.51771 18.7417 10.3464 18.7617 11.2185ZM24.5179 18.413C22.0454 18.413 20.0411 20.3296 20.0411 22.6974C20.0411 25.0651 22.0506 26.9896 24.5179 26.9896C26.9853 26.9896 28.9948 25.073 28.9948 22.7078C28.9948 20.3427 26.9958 18.413 24.5179 18.413ZM24.5179 24.5253C24.159 24.5115 23.8121 24.3929 23.5204 24.1841C23.2286 23.9753 23.0049 23.6856 22.877 23.3511C22.7492 23.0166 22.7228 22.652 22.8013 22.3027C22.8797 21.9534 23.0595 21.6347 23.3182 21.3865C23.577 21.1382 23.9032 20.9712 24.2565 20.9063C24.6097 20.8414 24.9743 20.8814 25.3048 21.0214C25.6354 21.1614 25.9174 21.3951 26.1157 21.6936C26.314 21.992 26.4199 22.342 26.4201 22.7C26.4167 22.9452 26.3648 23.1873 26.2672 23.4124C26.1697 23.6375 26.0285 23.8412 25.8517 24.0118C25.675 24.1823 25.4662 24.3164 25.2373 24.4064C25.0084 24.4963 24.7639 24.5403 24.5179 24.5358V24.5253ZM18.7617 21.6413V27H16.1766V21.6126C16.1766 21.412 16.0966 21.2197 15.9543 21.0779C15.812 20.9361 15.619 20.8564 15.4178 20.8564C15.2165 20.8564 15.0235 20.9361 14.8812 21.0779C14.7389 21.2197 14.659 21.412 14.659 21.6126V27H12.0844V21.6126C12.0844 21.412 12.0044 21.2197 11.8621 21.0779C11.7198 20.9361 11.5268 20.8564 11.3256 20.8564C11.1243 20.8564 10.9313 20.9361 10.789 21.0779C10.6467 21.2197 10.5668 21.412 10.5668 21.6126V27H8V21.6413C8.00783 21.2092 8.10103 20.7829 8.27428 20.3868C8.44753 19.9907 8.69743 19.6324 9.00969 19.3326C9.32195 19.0328 9.69045 18.7973 10.0941 18.6395C10.4978 18.4817 10.9287 18.4047 11.3622 18.413C12.0849 18.4119 12.7897 18.6372 13.3769 19.0571C13.9629 18.6367 14.667 18.4113 15.389 18.413C15.8233 18.4037 16.2552 18.4799 16.6599 18.6371C17.0646 18.7944 17.4342 19.0298 17.7475 19.3297C18.0608 19.6295 18.3117 19.9881 18.4857 20.3848C18.6597 20.7814 18.7535 21.2084 18.7617 21.6413Z" fill="#A50064"/>
</svg>
